<svg width="44" height="46" viewBox="0 0 44 46" fill="none" xmlns="http://www.w3.org/2000/svg">
<path d="M17.5669 37.0922H8.67967C7.42129 37.0922 6.39755 36.0684 6.39755 34.81V32.311C6.5972 32.3575 6.80219 32.3832 7.01033 32.3832C7.10491 32.3832 7.20022 32.3784 7.2957 32.3684C7.45231 32.3521 7.6053 32.3221 7.75386 32.2805V34.81C7.75386 35.3206 8.16916 35.7359 8.67967 35.7359H17.3889C17.7634 35.7359 18.067 35.4323 18.067 35.0577C18.067 34.6831 17.7634 34.3795 17.3889 34.3795H9.11016V31.3951C9.11469 31.3896 9.11957 31.3845 9.124 31.3789C10.0174 30.2787 9.90559 28.6851 8.90581 27.717C9.34245 27.5534 9.74284 27.2762 10.0574 26.8889C10.9509 25.7887 10.839 24.1951 9.83922 23.227C10.2759 23.0633 10.6762 22.7862 10.9908 22.3988C11.4482 21.8356 11.6588 21.128 11.584 20.4063C11.5091 19.6848 11.1577 19.0354 10.5945 18.578L9.11007 17.3726V4.06892H12.1128L12.1323 4.13023C12.3582 4.8422 13.0119 5.32061 13.7589 5.32061H19.0002C19.7472 5.32061 20.4009 4.84229 20.6269 4.13014L20.6465 4.06892H23.3414V13.4799C23.3414 13.8545 23.645 14.158 24.0196 14.158C24.3942 14.158 24.6977 13.8545 24.6977 13.4799V3.63843C24.6977 3.12792 24.2824 2.71262 23.772 2.71262H20.4638C19.9795 2.71262 19.5556 3.02285 19.409 3.48453L19.3344 3.7199C19.288 3.86611 19.1538 3.9643 19.0004 3.9643H13.759C13.6058 3.9643 13.4716 3.86611 13.4252 3.71999L13.3505 3.48453C13.204 3.02285 12.7802 2.71262 12.2958 2.71262H8.67967C8.16916 2.71262 7.75386 3.12801 7.75386 3.63843V16.2748C7.35321 15.9763 6.88673 15.797 6.39755 15.7501V8.84764C6.39755 8.47303 6.09392 8.16949 5.7194 8.16949C5.34714 8.16949 5.04523 8.46941 5.04161 8.84086C4.54358 8.54527 3.96624 8.41742 3.37969 8.47827C2.65804 8.55314 2.00873 8.90451 1.55139 9.46774C1.09404 10.031 0.883362 10.7386 0.958139 11.4602C1.03301 12.1818 1.38438 12.8312 1.94761 13.2885L5.04125 15.8008V15.9663C4.64973 16.1377 4.30188 16.4005 4.02465 16.7419C3.56731 17.3051 3.35663 18.0127 3.43141 18.7344C3.49787 19.3755 3.78314 19.9591 4.24076 20.4022C3.7949 20.5696 3.3994 20.8524 3.09115 21.2319C2.19753 22.3324 2.30956 23.9263 3.30988 24.8944C2.87306 25.0578 2.47241 25.3343 2.15775 25.7219C1.70031 26.2851 1.48963 26.9927 1.5645 27.7144C1.63937 28.4359 1.99074 29.0853 2.55397 29.5428L5.04116 31.5625V34.8099C5.04116 36.8162 6.67334 38.4484 8.67958 38.4484H17.5668C17.9413 38.4484 18.245 38.1448 18.245 37.7702C18.245 37.3956 17.9414 37.0922 17.5669 37.0922ZM2.80262 12.2356C2.52069 12.0067 2.34473 11.6816 2.30721 11.3203C2.26978 10.959 2.37521 10.6047 2.60424 10.3227C2.83319 10.0407 3.15825 9.86487 3.51966 9.82725C3.88061 9.78964 4.23524 9.89516 4.51717 10.1243L5.04125 10.5499V14.0535L2.80262 12.2356ZM5.0776 17.5968C5.30654 17.3149 5.6316 17.139 5.99301 17.1014C6.04076 17.0964 6.08841 17.094 6.13588 17.094C6.44674 17.094 6.74594 17.1998 6.99062 17.3984L9.73976 19.6308C10.0217 19.8598 10.1976 20.1848 10.2352 20.5461C10.2726 20.9075 10.1672 21.2617 9.93823 21.5437C9.46552 22.1258 8.60743 22.215 8.02521 21.742L5.27607 19.5096C4.99414 19.2807 4.81818 18.9556 4.78066 18.5943C4.74313 18.2331 4.84865 17.8788 5.0776 17.5968ZM4.14419 22.0869C4.37313 21.805 4.6982 21.6291 5.05961 21.5915C5.40592 21.5559 5.74526 21.6524 6.02123 21.8621L7.17011 22.7951C7.18313 22.8056 7.19687 22.8144 7.20998 22.8247L8.80617 24.1209C9.3883 24.5936 9.47727 25.4518 9.00455 26.0338C8.53184 26.6159 7.67366 26.7049 7.09153 26.2322L4.34248 23.9998C3.76045 23.5272 3.67147 22.669 4.14419 22.0869ZM2.91375 27.5745C2.87632 27.2133 2.98175 26.859 3.21078 26.577C3.47915 26.2465 3.87184 26.0749 4.2677 26.0749C4.55298 26.0749 4.83934 26.1652 5.08257 26.348L6.2367 27.2853C6.2499 27.296 6.264 27.305 6.27739 27.3154L7.87285 28.611C8.45498 29.0837 8.54395 29.9419 8.07123 30.5239C7.8422 30.8059 7.51714 30.9818 7.15582 31.0193C6.79459 31.0567 6.44023 30.9513 6.1583 30.7223L3.40925 28.4899C3.12714 28.261 2.95118 27.9358 2.91375 27.5745Z" fill="#2F60DD" fill-opacity="0.95"/>
<path d="M5.71941 6.63577C6.09393 6.63577 6.39757 6.33223 6.39757 5.95762V3.63842C6.39757 2.38004 7.4214 1.35631 8.67969 1.35631H23.7719C25.0302 1.35631 26.054 2.38004 26.054 3.63842V16.1522C26.054 16.5269 26.3575 16.8304 26.7321 16.8304C27.1067 16.8304 27.4103 16.5269 27.4103 16.1522V3.63842C27.4104 1.63218 25.7782 0 23.7719 0H8.67969C6.67344 0 5.04126 1.63218 5.04126 3.63842V5.95753C5.04126 6.33214 5.34489 6.63577 5.71941 6.63577Z" fill="#2F60DD" fill-opacity="0.95"/>
<path d="M42.8953 44.8827L38.2688 39.4403C38.0262 39.1549 37.5982 39.1203 37.3129 39.3629C37.0276 39.6055 36.9928 40.0334 37.2355 40.3187L41.8621 45.7611C41.9962 45.9189 42.187 46.0001 42.3791 46.0001C42.5343 46.0001 42.6904 45.9471 42.818 45.8386C43.1033 45.596 43.138 45.168 42.8953 44.8827Z" fill="#2F60DD" fill-opacity="0.95"/>
<path d="M26.2901 42.9979C26.1849 42.8604 26.0311 42.7686 25.8602 42.7409C23.5025 42.3598 21.5955 40.5318 21.115 38.1924L20.8651 36.9752C20.5823 35.5981 20.81 34.167 21.5062 32.9456L24.8609 27.0603C25.2971 26.295 25.2291 25.3515 24.6874 24.6566L21.5453 20.6261C20.626 19.447 20.6722 17.7733 21.6548 16.6466L21.8227 16.454C21.9125 16.351 22.0243 16.3338 22.0828 16.3326C22.1428 16.3307 22.2537 16.3445 22.3474 16.4438L25.3456 19.625C25.6025 19.8976 26.0316 19.9101 26.3043 19.6533C26.5769 19.3964 26.5895 18.9672 26.3326 18.6946L23.3344 15.5135C23.0041 15.1629 22.5384 14.9665 22.0567 14.9765C21.575 14.9858 21.1172 15.1993 20.8005 15.5623L20.6326 15.7549C19.2239 17.3702 19.1579 19.7694 20.4757 21.4599L23.6178 25.4904C23.8201 25.75 23.8456 26.1025 23.6826 26.3885L20.3279 32.2739C19.4685 33.7816 19.1874 35.5481 19.5366 37.248L19.7865 38.4652C20.361 41.2629 22.5881 43.468 25.3728 44.0306L26.6789 45.7343C26.8124 45.9086 27.0138 46 27.2176 46C27.3614 46 27.5066 45.9543 27.6296 45.86C27.9269 45.6322 27.9832 45.2065 27.7553 44.9093L26.2901 42.9979Z" fill="#2F60DD" fill-opacity="0.95"/>
<path d="M34.6407 35.1723C34.4934 34.9991 34.4123 34.7785 34.4123 34.5512V31.0598C34.4123 28.614 33.4884 26.2869 31.8109 24.5071L28.3157 20.7988C28.0589 20.5261 27.6296 20.5137 27.357 20.7705C27.0845 21.0273 27.0718 21.4566 27.3287 21.7292L30.8239 25.4375C32.2632 26.9646 33.0559 28.9613 33.0559 31.0598V34.5512C33.0559 35.1 33.2517 35.6326 33.6072 36.0509L35.3572 38.1096C35.4914 38.2674 35.6823 38.3486 35.8744 38.3486C36.0296 38.3486 36.1856 38.2956 36.3133 38.1872C36.5986 37.9445 36.6333 37.5167 36.3907 37.2313L34.6407 35.1723Z" fill="#2F60DD" fill-opacity="0.95"/>
<path d="M16.3797 7.38898C14.6405 7.38898 13.2256 8.80387 13.2256 10.5432C13.2256 12.2823 14.6405 13.6973 16.3797 13.6973C16.9125 13.6973 17.4145 13.5641 17.855 13.33L18.8962 14.3711C19.0286 14.5035 19.2022 14.5697 19.3757 14.5697C19.5492 14.5697 19.7228 14.5035 19.8552 14.3711C20.12 14.1062 20.12 13.6769 19.8552 13.4121L18.8914 12.4484C19.2941 11.9187 19.5338 11.2586 19.5338 10.5434C19.5339 8.80387 18.119 7.38898 16.3797 7.38898ZM14.5819 10.5432C14.5819 9.55183 15.3883 8.74528 16.3797 8.74528C17.3711 8.74528 18.1776 9.55183 18.1776 10.5432C18.1776 11.5346 17.3711 12.341 16.3797 12.341C15.3883 12.341 14.5819 11.5345 14.5819 10.5432Z" fill="#2F60DD" fill-opacity="0.95"/>
<path d="M18.1304 30.5281H12.8264C12.7169 30.5281 12.6278 30.439 12.6278 30.3294V27.4278C12.6278 27.3182 12.7169 27.2291 12.8264 27.2291H19.6338C20.0084 27.2291 20.312 26.9256 20.312 26.551C20.312 26.1763 20.0084 25.8728 19.6338 25.8728H12.8264C11.9691 25.8728 11.2715 26.5704 11.2715 27.4278V30.3294C11.2715 31.1868 11.9691 31.8844 12.8264 31.8844H18.1304C18.5049 31.8844 18.8086 31.5809 18.8086 31.2062C18.8086 30.8316 18.5049 30.5281 18.1304 30.5281Z" fill="#2F60DD" fill-opacity="0.95"/>
</svg>
